<?xml version="1.0" encoding="UTF-8" standalone="no"?>
<!-- Created with Inkscape (http://www.inkscape.org/) -->

<svg
   xmlns:dc="http://purl.org/dc/elements/1.1/"
   xmlns:cc="http://creativecommons.org/ns#"
   xmlns:rdf="http://www.w3.org/1999/02/22-rdf-syntax-ns#"
   xmlns:svg="http://www.w3.org/2000/svg"
   xmlns="http://www.w3.org/2000/svg"
   xmlns:sodipodi="http://sodipodi.sourceforge.net/DTD/sodipodi-0.dtd"
   xmlns:inkscape="http://www.inkscape.org/namespaces/inkscape"
   sodipodi:docname="small_sole_outline.svg"
   inkscape:version="0.91 r13725"
   version="1.1"
   id="svg2"
   viewBox="0 0 810.000012 540.000013"
   height="6in"
   width="9in">
  <sodipodi:namedview
     inkscape:object-nodes="true"
     inkscape:guide-bbox="true"
     showguides="true"
     units="in"
     inkscape:window-maximized="1"
     inkscape:window-y="-8"
     inkscape:window-x="-8"
     inkscape:window-height="837"
     inkscape:window-width="1440"
     showgrid="false"
     inkscape:current-layer="layer1"
     inkscape:document-units="mm"
     inkscape:cy="-217.129142"
     inkscape:cx="152.574095"
     inkscape:zoom="0.360624458"
     inkscape:pageshadow="2"
     inkscape:pageopacity="0.0"
     borderopacity="1.0"
     bordercolor="#666666"
     pagecolor="#ffffff"
     id="base" />
  <defs
     id="defs4" />
  <metadata
     id="metadata7">
    <rdf:RDF>
      <cc:Work
         rdf:about="">
        <dc:format>image/svg+xml</dc:format>
        <dc:type
           rdf:resource="http://purl.org/dc/dcmitype/StillImage" />
        <dc:title></dc:title>
      </cc:Work>
    </rdf:RDF>
  </metadata>
  <g
     inkscape:label="Layer 1"
     inkscape:groupmode="layer"
     id="layer1"
     transform="translate(0,-512.362145)">
    <g
       id="g4679" />
    <g
       id="g4921" />
    <g
       id="g5482" />
    <g
       id="g5705" />
    <g
       id="g4309" />
    <g
       id="g4645" />
    <g
       id="g4980" />
    <g
       id="g5208" />
    <g
       id="g5579" />
    <g
       id="g5817" />
    <g
       id="g4364" />
    <g
       id="g4612" />
    <g
       id="g5046" />
    <path
       style="fill:none;fill-opacity:1;fill-rule:evenodd;stroke:#000000;stroke-width:0.354330719;stroke-linejoin:round;stroke-miterlimit:4;stroke-dasharray:none;stroke-dashoffset:0;stroke-opacity:1"
       d="m 109.142857,559.875247 198.887817,0 c 19.488845,0 35.178421,15.68957 35.178421,35.17842 l 0,21.72128 c 0,19.48885 -15.689576,35.17842 -35.178421,35.17842 l -198.887817,0 c -19.4888446,0 -35.1784206,-15.68957 -35.1784206,-35.17842 l 0,-21.72128 c 0,-19.48885 15.689576,-35.17842 35.1784206,-35.17842 z"
       id="rect5410-5-1"
       inkscape:connector-curvature="0" />
    <path
       sodipodi:nodetypes="sssssssssssss"
       inkscape:connector-curvature="0"
       id="path4149-6-1"
       d="m 141.450925,534.488807 175.650002,12.74006 c 6.305092,0.45731 16.699823,4.16637 25.420672,12.36415 7.664557,7.20484 14.046232,18.24461 15.258902,25.22815 1.897708,10.92855 -0.49051,41.45458 -4.794654,52.08813 -3.091254,7.63706 -10.594786,15.62714 -17.268396,20.1489 -7.409957,5.02067 -15.816445,6.70414 -24.666251,6.9771 l -181.52806,5.59925 c -18.567242,0.57274 -46.5533956,-6.95563 -60.4331326,-19.83643 -11.62953,-10.79253 -14.208106,-26.6213 -15.695613,-42.74043 -1.408068,-15.2583 8.341576,-36.05403 17.421621,-48.09741 4.351764,-5.77199 18.202768,-15.88362 33.0588986,-20.39677 16.108475,-4.89359 29.93247,-4.62909 37.576011,-4.0747 z"
       style="fill:none;fill-rule:evenodd;stroke:#000000;stroke-width:1.806895137;stroke-linecap:butt;stroke-linejoin:miter;stroke-miterlimit:4;stroke-dasharray:none;stroke-opacity:1" />
    <path
       inkscape:connector-curvature="0"
       style="fill:none;fill-opacity:1;fill-rule:evenodd;stroke:#000000;stroke-width:0.354330719;stroke-linejoin:round;stroke-miterlimit:4;stroke-dasharray:none;stroke-dashoffset:0;stroke-opacity:1"
       d="m 471.440457,581.571693 72.444179,0 15.251323,8 111.192315,0 c 19.488845,0 35.178421,15.68957 35.178421,35.17842 l 0,5.72128 c 0,19.48885 -15.692808,34.82351 -35.178421,35.17842 l -109.805831,2 -16.637807,6 -72.444179,0 c -19.488845,0 -35.178421,-15.68957 -35.178421,-35.17842 l 0,-21.72128 c 0,-19.48885 15.689576,-35.17842 35.178421,-35.17842 z"
       id="rect5410-5-1-1"
       sodipodi:nodetypes="sccssssccssss" />
    <path
       sodipodi:nodetypes="sssssssssssss"
       inkscape:connector-curvature="0"
       id="path4149-6-1-7"
       d="m 503.748525,556.185253 175.650002,12.74006 c 6.305092,0.45731 16.699823,4.16637 25.420672,12.36415 7.664557,7.20484 14.046232,18.24461 15.258902,25.22815 1.897708,10.92855 -0.49051,41.45458 -4.794654,52.08813 -3.091254,7.63706 -10.594786,15.62714 -17.268396,20.1489 -7.409957,5.02067 -15.816445,6.70414 -24.666251,6.9771 l -181.52806,5.59925 c -18.567242,0.57274 -46.553396,-6.95563 -60.433133,-19.83643 -11.62953,-10.79253 -14.208106,-26.6213 -15.695613,-42.74043 -1.408068,-15.2583 8.341576,-36.05403 17.421621,-48.09741 4.351764,-5.77199 18.202768,-15.88362 33.058899,-20.39677 16.108475,-4.89359 29.93247,-4.62909 37.576011,-4.0747 z"
       style="fill:none;fill-rule:evenodd;stroke:#000000;stroke-width:1.806895137;stroke-linecap:butt;stroke-linejoin:miter;stroke-miterlimit:4;stroke-dasharray:none;stroke-opacity:1" />
  </g>
  <defs
     id="defs4719">
    <marker
       refY="-1.687441"
       refX="-4"
       style="overflow:visible"
       id="CheckToolsAndOPMarker"
       orient="auto">
      <path
         style="fill:#000044; fill-rule:evenodd;stroke:none;"
         d=" m -4.588864,-1.687441 0.0,0.0 L -9.177728,0.0 c 0.73311,-0.996261 0.728882,-2.359329 0.0,-3.374882"
         id="path4722" />
    </marker>
  </defs>
  <defs
     id="defs4724">
    <marker
       refY="-1.687441"
       refX="-4"
       style="overflow:visible"
       id="DrawCurveMarker"
       orient="auto">
      <path
         style="fill:#000044; fill-rule:evenodd;stroke:none;"
         d="m -4.588864,-1.687441 0.0,0.0 L -9.177728,0.0 c 0.73311,-0.996261 0.728882,-2.359329 0.0,-3.374882"
         id="path4727" />
    </marker>
  </defs>
  <defs
     id="defs4729">
    <marker
       refY="-1.687441"
       refX="4"
       style="overflow:visible"
       id="DrawCurveMarker_r"
       orient="auto">
      <path
         style="fill:#000044; fill-rule:evenodd;stroke:none;"
         d="m 4.588864,-1.687441 0.0,0.0 L 9.177728,0.0 c -0.73311,-0.996261 -0.728882,-2.359329 0.0,-3.374882"
         id="path4732" />
    </marker>
  </defs>
  <defs
     id="defs4734">
    <marker
       refY="-1.687441"
       refX="-4"
       style="overflow:visible"
       id="InOutPathMarker"
       orient="auto">
      <path
         style="fill:#0072a7; fill-rule:evenodd;stroke:none;"
         d="m -4.588864,-1.687441 0.0,0.0 L -9.177728,0.0 c 0.73311,-0.996261 0.728882,-2.359329 0.0,-3.374882"
         id="path4737" />
    </marker>
  </defs>
  <g
     id="g5245" />
</svg>
